<svg width="25" height="25" viewBox="0 0 25 25" fill="none" xmlns="http://www.w3.org/2000/svg">
<path d="M10.612 15.921L7.11133 12.421L8.32429 11.2086L10.612 13.4963L15.6868 8.42578L16.8998 9.63816L10.612 15.921Z" fill="white"/>
<path d="M12.0048 22C6.4888 22 2 17.5143 2 12C2 6.48571 6.4888 2 12.0048 2C17.5217 2 22.0095 6.48571 22.0095 12C22.0095 17.5143 17.5217 22 12.0048 22ZM12.0048 3.71429C7.43306 3.71429 3.7151 7.43048 3.7151 12C3.7151 16.5695 7.43306 20.2857 12.0048 20.2857C16.5765 20.2857 20.2944 16.5695 20.2944 12C20.2944 7.43048 16.5765 3.71429 12.0048 3.71429V3.71429Z" fill="white"/>
</svg>
