<svg width="25" height="25" viewBox="0 0 25 25" fill="none" xmlns="http://www.w3.org/2000/svg">
<path d="M12.0048 23C6.48785 23 2 18.5143 2 13C2 7.48571 6.48785 3 12.0048 3C17.5217 3 22.0095 7.48571 22.0095 13C22.0095 18.5143 17.5217 23 12.0048 23ZM12.0048 4.71429C7.43306 4.71429 3.7151 8.43048 3.7151 13C3.7151 17.5695 7.43306 21.2857 12.0048 21.2857C16.5765 21.2857 20.2944 17.5695 20.2944 13C20.2944 8.43048 16.5765 4.71429 12.0048 4.71429V4.71429Z" fill="white"/>
<path d="M15.8978 10.32L14.6849 9.10767L12.0036 11.7877L9.32233 9.10767L8.10938 10.32L10.7907 13L8.10938 15.68L9.32233 16.8924L12.0036 14.2124L14.6849 16.8924L15.8978 15.68L13.2166 13L15.8978 10.32Z" fill="white"/>
</svg>
