<svg width="25" height="25" viewBox="0 0 25 25" fill="none" xmlns="http://www.w3.org/2000/svg">
<path d="M11.8905 17.7354C11.639 17.7354 11.3989 17.6373 11.2236 17.4592C11.0482 17.284 10.9463 17.044 10.9463 16.7916C10.9463 16.5421 11.0482 16.303 11.2236 16.1269C11.5752 15.7754 12.205 15.7754 12.5556 16.1269C12.7319 16.303 12.8339 16.5421 12.8339 16.7916C12.8339 17.044 12.7329 17.284 12.5556 17.4592C12.3794 17.6364 12.1402 17.7354 11.8896 17.7354H11.8905Z" fill="white"/>
<path d="M12.0048 23C6.48785 23 2 18.5143 2 13C2 7.48571 6.48785 3 12.0048 3C17.5217 3 22.0095 7.48571 22.0095 13C22.0095 18.5143 17.5217 23 12.0048 23ZM12.0048 4.71429C7.43306 4.71429 3.7151 8.43048 3.7151 13C3.7151 17.5695 7.43306 21.2857 12.0048 21.2857C16.5765 21.2857 20.2944 17.5695 20.2944 13C20.2944 8.43048 16.5765 4.71429 12.0048 4.71429V4.71429Z" fill="white"/>
<path d="M13.9662 8.93066C13.6032 8.63352 13 8.23828 11.9567 8.23828C10.8037 8.23828 9.87664 8.99447 9.48217 9.73828C9.30303 10.0764 9.18393 10.344 9.1582 10.9764V11.643H10.8714V11.0478C10.8838 10.7564 10.8971 10.7316 11.02 10.5011C11.142 10.2716 11.5346 9.95352 11.9567 9.95352C12.4655 9.95352 12.6999 10.1097 12.879 10.2573C12.9962 10.3535 13.1363 10.6688 13.1363 10.8869C13.1363 11.3402 12.9333 11.4849 12.8581 11.5735L12.1768 11.9802C12.1234 12.0126 12.0739 12.0497 12.0291 12.0907C11.2001 12.8649 11.0372 13.3307 11.0239 14.0726H11.0219V14.9183H12.737V14.1802C12.737 13.8126 12.737 13.7783 13.1344 13.4049C13.1344 13.4049 14.1301 12.8049 14.5694 12.1278C14.8581 11.683 14.8542 11.1954 14.8504 10.7964C14.8504 10.1459 14.4693 9.344 13.9662 8.93161V8.93066Z" fill="white"/>
</svg>
